# xmcd
#
# Track frame offsets: 
#        150
#        9904
#        20776
#        31735
#        41020
#        51571
#        64810
#        79975
#        89407
#        100943
#        113778
#        125398
#        137671
#        150822
#        159596
#        171452
#        183994
#        195098
#
# Disc length: 2755 seconds
#
# Revision: 1
# Processed by: cddbd v1.5.2PL0 Copyright (c) Steve Scherf et al.
# Submitted via: ExactAudioCopy v0.99pb5
#
DISCID=e40ac112
DTITLE=Various Artist - Kings Of Western Swing
DYEAR=2006
DGENRE=Western Swing
TTITLE0=Bob Wills and The Texas Playboys - Take Me Back To Tulsa
TTITLE1=Sons Of The West - Panhandle Rag
TTITLE2=Crystal Springs Ramblers - Fort Worth Stomp
TTITLE3=Light Crust Doughboys - Bugle Call Rag
TTITLE4=Saddle Tramps - Hot As I Am
TTITLE5=Slim Harbert and His Boys - Brown Bottle Blues
TTITLE6=Bob Wills and The Texas Playboys - San Antonio Rose
TTITLE7=Red Foley - Cheatin' On You Baby
TTITLE8=Milton Brown and His Musical Brownies - Keep A Knockin' But You 
TTITLE8=Can't Come In
TTITLE9=Johnnie Lee Wills - Milk Cow Blues
TTITLE10=Swift Jewel Cowboys - Little Willie Green (From New Orleans)
TTITLE11=Tex Atchison - Tennessee Hound Dog
TTITLE12=T. Texas Tyler - Blues Don't Mean A Thing
TTITLE13=Johnny Tyler and Riders Of The Rio Grande - I Can't Trust You N
TTITLE13=ow
TTITLE14=Jerry Irby and His Texas Ranchers - Nails In My Coffin
TTITLE15=Tex Williams and His Orchestra - Talking Boogie
TTITLE16=Spade Cooley and The Western Swing Dance Gang - Oklahoma Stomp
TTITLE17=Hank Penny - I'm Talking About You
EXTD=
EXTT0=
EXTT1=
EXTT2=
EXTT3=
EXTT4=
EXTT5=
EXTT6=
EXTT7=
EXTT8=
EXTT9=
EXTT10=
EXTT11=
EXTT12=
EXTT13=
EXTT14=
EXTT15=
EXTT16=
EXTT17=
PLAYORDER=
